<svg xmlns="http://www.w3.org/2000/svg" version="1.1" xmlns:xlink="http://www.w3.org/1999/xlink" xmlns:svgjs="http://svgjs.dev/svgjs" width="1000" height="625" viewBox="0 0 1000 625"><g transform="matrix(1,0,0,1,0,0)"><svg viewBox="0 0 576 360" data-background-color="#471aa0" preserveAspectRatio="xMidYMid meet" height="625" width="1000" xmlns="http://www.w3.org/2000/svg" xmlns:xlink="http://www.w3.org/1999/xlink"><g id="tight-bounds" transform="matrix(1,0,0,1,0,0)"><svg viewBox="0 0 576 360" height="360" width="576"><g><svg></svg></g><g><svg viewBox="0 0 576 360" height="360" width="576"><g><path d="M132.115 90l155.885-90 155.885 90v180l-155.885 90-155.885-90zM136.83 267.278l151.17 87.278 151.17-87.278 0-174.556-151.17-87.278-151.17 87.278z" fill="#ffffff" fill-rule="nonzero" stroke="none" stroke-width="1" stroke-linecap="butt" stroke-linejoin="miter" stroke-miterlimit="10" stroke-dasharray="" stroke-dashoffset="0" font-family="none" font-weight="none" font-size="none" text-anchor="none" style="mix-blend-mode: normal" data-fill-palette-color="tertiary"></path></g><g transform="matrix(1,0,0,1,172.8,111.56718864703062)"><svg viewBox="0 0 230.4 136.86562270593876" height="136.86562270593876" width="230.4"><g><svg viewBox="0 0 230.4 136.86562270593876" height="136.86562270593876" width="230.4"><g><svg viewBox="0 0 230.4 136.86562270593876" height="136.86562270593876" width="230.4"><g transform="matrix(1,0,0,1,0,84.58844560873503)"><svg viewBox="0 0 230.4 52.27717709720373" height="52.27717709720373" width="230.4"><g id="textblocktransform"><svg viewBox="0 0 230.4 52.27717709720373" height="52.27717709720373" width="230.4" id="textblock"><g><svg viewBox="0 0 230.4 52.27717709720373" height="52.27717709720373" width="230.4"><g transform="matrix(1,0,0,1,0,0)"><svg width="230.4" viewBox="3.05 -32.1 187.73999999999998 42.6" height="52.27717709720373" data-palette-color="#ffffff"><path d="M19.25-9.25L19.25-16.15Q19.25-18.95 17.75-20.48 16.25-22 13.5-22L13.5-22Q10.9-22 9.1-20.88 7.3-19.75 6.45-17.25L6.45-17.25 3.2-19.25Q4.2-22.05 6.9-23.78 9.6-25.5 13.6-25.5L13.6-25.5Q16.3-25.5 18.5-24.58 20.7-23.65 21.98-21.78 23.25-19.9 23.25-16.95L23.25-16.95 23.25-4.85Q23.25-3.05 25.15-3.05L25.15-3.05Q26.1-3.05 27-3.3L27-3.3 26.8-0.15Q25.8 0.35 24.2 0.35L24.2 0.35Q22.75 0.35 21.6-0.2 20.45-0.75 19.8-1.88 19.15-3 19.15-4.7L19.15-4.7 19.15-5.2 20.15-5.05Q19.55-3.1 18.1-1.88 16.65-0.65 14.85-0.08 13.05 0.5 11.3 0.5L11.3 0.5Q9.1 0.5 7.2-0.25 5.3-1 4.17-2.53 3.05-4.05 3.05-6.3L3.05-6.3Q3.05-9.1 4.93-10.93 6.8-12.75 10.15-13.4L10.15-13.4 20.05-15.35 20.05-12.05 12-10.4Q9.55-9.9 8.35-9 7.15-8.1 7.15-6.5L7.15-6.5Q7.15-4.95 8.38-3.98 9.6-3 11.85-3L11.85-3Q13.3-3 14.63-3.38 15.95-3.75 17-4.53 18.05-5.3 18.65-6.48 19.25-7.65 19.25-9.25L19.25-9.25ZM36.95 10.5L32.95 10.5 32.95-25 36.45-25 36.8-18.9 36.25-19.6Q36.9-21.35 38.2-22.68 39.5-24 41.35-24.75 43.2-25.5 45.35-25.5L45.35-25.5Q48.4-25.5 50.97-23.95 53.55-22.4 55.1-19.5 56.65-16.6 56.65-12.5L56.65-12.5Q56.65-8.45 55.07-5.53 53.5-2.6 50.9-1.05 48.3 0.5 45.2 0.5L45.2 0.5Q42.1 0.5 39.77-1.03 37.45-2.55 36.45-4.9L36.45-4.9 36.95-5.65 36.95 10.5ZM44.8-3L44.8-3Q48.5-3 50.57-5.6 52.65-8.2 52.65-12.5L52.65-12.5Q52.65-16.8 50.62-19.4 48.6-22 44.95-22L44.95-22Q42.55-22 40.75-20.83 38.95-19.65 37.95-17.53 36.95-15.4 36.95-12.5L36.95-12.5Q36.95-9.65 37.92-7.5 38.9-5.35 40.67-4.17 42.45-3 44.8-3ZM73.34 0.5L73.34 0.5Q70.95 0.5 68.82-0.4 66.7-1.3 65.37-3.33 64.05-5.35 64.05-8.6L64.05-8.6 64.05-25 68.05-25 68.05-9.65Q68.05-5.85 69.7-4.42 71.34-3 74.34-3L74.34-3Q75.75-3 77.09-3.48 78.45-3.95 79.52-4.98 80.59-6 81.22-7.6 81.84-9.2 81.84-11.4L81.84-11.4 81.84-25 85.84-25 85.84 0 82.34 0 82.09-3.8Q80.8-1.55 78.57-0.53 76.34 0.5 73.34 0.5ZM99.14 0L95.14 0 95.14-25 98.64-25 98.99-19.4 98.34-19.95Q99.14-21.95 100.49-23.18 101.84-24.4 103.62-24.95 105.39-25.5 107.29-25.5L107.29-25.5Q109.99-25.5 112.19-24.48 114.39-23.45 115.72-21.35 117.04-19.25 117.04-16L117.04-16 117.04 0 113.04 0 113.04-14.6Q113.04-18.75 111.27-20.38 109.49-22 106.89-22L106.89-22Q105.09-22 103.29-21.15 101.49-20.3 100.32-18.4 99.14-16.5 99.14-13.3L99.14-13.3 99.14 0ZM127.99-31L131.99-32.1 131.99-6.9Q131.99-5.05 133.04-4.15 134.09-3.25 135.74-3.25L135.74-3.25Q137.19-3.25 138.24-3.75 139.29-4.25 140.14-5.1L140.14-5.1 141.54-1.75Q140.39-0.7 138.81-0.1 137.24 0.5 135.19 0.5L135.19 0.5Q133.29 0.5 131.64-0.18 129.99-0.85 129.02-2.33 128.04-3.8 127.99-6.2L127.99-6.2 127.99-31ZM122.99-25L141.09-25 141.09-21.55 122.99-21.55 122.99-25ZM161.64-9.25L161.64-16.15Q161.64-18.95 160.14-20.48 158.64-22 155.89-22L155.89-22Q153.29-22 151.49-20.88 149.69-19.75 148.84-17.25L148.84-17.25 145.59-19.25Q146.59-22.05 149.29-23.78 151.99-25.5 155.99-25.5L155.99-25.5Q158.69-25.5 160.89-24.58 163.09-23.65 164.36-21.78 165.64-19.9 165.64-16.95L165.64-16.95 165.64-4.85Q165.64-3.05 167.54-3.05L167.54-3.05Q168.49-3.05 169.39-3.3L169.39-3.3 169.19-0.15Q168.19 0.35 166.59 0.35L166.59 0.35Q165.14 0.35 163.99-0.2 162.84-0.75 162.19-1.88 161.54-3 161.54-4.7L161.54-4.7 161.54-5.2 162.54-5.05Q161.94-3.1 160.49-1.88 159.04-0.65 157.24-0.08 155.44 0.5 153.69 0.5L153.69 0.5Q151.49 0.5 149.59-0.25 147.69-1 146.56-2.53 145.44-4.05 145.44-6.3L145.44-6.3Q145.44-9.1 147.31-10.93 149.19-12.75 152.54-13.4L152.54-13.4 162.44-15.35 162.44-12.05 154.39-10.4Q151.94-9.9 150.74-9 149.54-8.1 149.54-6.5L149.54-6.5Q149.54-4.95 150.76-3.98 151.99-3 154.24-3L154.24-3Q155.69-3 157.01-3.38 158.34-3.75 159.39-4.53 160.44-5.3 161.04-6.48 161.64-7.65 161.64-9.25L161.64-9.25ZM177.24-31L181.24-32.1 181.24-6.9Q181.24-5.05 182.29-4.15 183.34-3.25 184.99-3.25L184.99-3.25Q186.44-3.25 187.49-3.75 188.54-4.25 189.39-5.1L189.39-5.1 190.79-1.75Q189.64-0.7 188.06-0.1 186.49 0.5 184.44 0.5L184.44 0.5Q182.54 0.5 180.89-0.18 179.24-0.85 178.26-2.33 177.29-3.8 177.24-6.2L177.24-6.2 177.24-31ZM172.24-25L190.34-25 190.34-21.55 172.24-21.55 172.24-25Z" opacity="1" transform="matrix(1,0,0,1,0,0)" fill="#ffffff" class="undefined-text-0" data-fill-palette-color="primary" id="text-0"></path></svg></g></svg></g></svg></g></svg></g><g transform="matrix(1,0,0,1,79.32276101687891,0)"><svg viewBox="0 0 71.75447796624218 72.24705874833556" height="72.24705874833556" width="71.75447796624218"><g><svg xmlns="http://www.w3.org/2000/svg" xmlns:xlink="http://www.w3.org/1999/xlink" version="1.1" x="0" y="0" viewBox="0.34080046444415096 0 99.31819953555586 100" enable-background="new 0 0 100 100" xml:space="preserve" height="72.24705874833556" width="71.75447796624218" class="icon-icon-0" data-fill-palette-color="accent" id="icon-0"><path d="M69.172 11.265c-0.191-0.192-0.502-0.192-0.695 0L11.639 68.029c-0.192 0.191-0.192 0.501 0 0.692l19.207 19.184c0.096 0.095 0.222 0.143 0.348 0.143 0.125 0 0.251-0.048 0.347-0.143L88.38 31.14c0.093-0.092 0.145-0.216 0.145-0.347s-0.052-0.255-0.145-0.347L69.172 11.265z" fill="#ffffff" data-fill-palette-color="accent"></path><path d="M96.846 9.12l-6.319-6.311C88.713 0.998 86.301 0 83.735 0c-2.564 0-4.977 0.998-6.79 2.809L70.626 9.12c-0.093 0.092-0.145 0.216-0.145 0.347 0 0.13 0.052 0.254 0.145 0.346l19.207 19.182c0.092 0.092 0.218 0.144 0.348 0.144 0.131 0 0.255-0.052 0.346-0.144l6.319-6.311c1.814-1.812 2.813-4.22 2.813-6.783C99.659 13.34 98.66 10.932 96.846 9.12z" fill="#ffffff" data-fill-palette-color="accent"></path><path d="M10.358 69.967c-0.122-0.121-0.296-0.172-0.464-0.129-0.167 0.04-0.3 0.165-0.351 0.33l-9.18 29.195c-0.055 0.178-0.006 0.369 0.127 0.498C0.584 99.952 0.707 100 0.832 100c0.054 0 0.11-0.011 0.164-0.029l28.387-10.012c0.159-0.056 0.278-0.188 0.315-0.354 0.037-0.164-0.012-0.337-0.132-0.455L10.358 69.967z" fill="#ffffff" data-fill-palette-color="accent"></path></svg></g></svg></g><g></g></svg></g></svg></g></svg></g></svg></g><defs></defs></svg><rect width="576" height="360" fill="none" stroke="none" visibility="hidden"></rect></g></svg></g></svg>